<svg width="1200" height="630" viewBox="0 0 1200 630" fill="none" xmlns="http://www.w3.org/2000/svg">
  <!-- Background Gradient -->
  <rect width="1200" height="630" fill="url(#bgGradient)"/>
  
  <!-- Main Container -->
  <rect x="100" y="100" width="1000" height="430" rx="20" fill="white" fill-opacity="0.1" stroke="white" stroke-width="2"/>
  
  <!-- Logo Section -->
  <circle cx="300" cy="200" r="40" fill="white"/>
  <circle cx="285" cy="185" r="4" fill="#3B82F6"/>
  <circle cx="300" cy="185" r="4" fill="#3B82F6"/>
  <circle cx="315" cy="185" r="4" fill="#3B82F6"/>
  <path d="M275 210H325" stroke="#3B82F6" stroke-width="4" stroke-linecap="round"/>
  
  <!-- Title -->
  <text x="400" y="180" font-family="system-ui, -apple-system, sans-serif" font-size="72" font-weight="bold" fill="white">Cleen</text>
  <text x="400" y="220" font-family="system-ui, -apple-system, sans-serif" font-size="32" fill="white" fill-opacity="0.9">AI 기반 웹 콘텐츠 필터링</text>
  
  <!-- Feature List -->
  <circle cx="150" cy="300" r="8" fill="#10B981"/>
  <text x="180" y="310" font-family="system-ui, -apple-system, sans-serif" font-size="28" fill="white">지능형 콘텐츠 분석</text>
  
  <circle cx="150" cy="350" r="8" fill="#10B981"/>
  <text x="180" y="360" font-family="system-ui, -apple-system, sans-serif" font-size="28" fill="white">실시간 필터링</text>
  
  <circle cx="150" cy="400" r="8" fill="#10B981"/>
  <text x="180" y="410" font-family="system-ui, -apple-system, sans-serif" font-size="28" fill="white">안전한 브라우징 환경</text>
  
  <!-- Browser Window Mockup -->
  <rect x="550" y="280" width="500" height="200" rx="10" fill="white" fill-opacity="0.1" stroke="white" stroke-width="1"/>
  <rect x="550" y="280" width="500" height="30" rx="10" fill="white" fill-opacity="0.2"/>
  <circle cx="570" cy="295" r="4" fill="#EF4444"/>
  <circle cx="590" cy="295" r="4" fill="#F59E0B"/>
  <circle cx="610" cy="295" r="4" fill="#10B981"/>
  
  <!-- Content blocks with filter overlay -->
  <rect x="570" y="330" width="460" height="40" rx="5" fill="white" fill-opacity="0.3"/>
  <rect x="570" y="380" width="460" height="40" rx="5" fill="white" fill-opacity="0.3"/>
  <rect x="570" y="430" width="460" height="40" rx="5" fill="white" fill-opacity="0.3"/>
  
  <!-- Filter overlay on middle content -->
  <rect x="570" y="380" width="460" height="40" rx="5" fill="#3B82F6" fill-opacity="0.7"/>
  <text x="750" y="405" font-family="system-ui, -apple-system, sans-serif" font-size="16" fill="white" text-anchor="middle">필터링됨</text>
  
  <defs>
    <linearGradient id="bgGradient" x1="0" y1="0" x2="1200" y2="630" gradientUnits="userSpaceOnUse">
      <stop stop-color="#1E40AF"/>
      <stop offset="1" stop-color="#3B82F6"/>
    </linearGradient>
  </defs>
</svg>